<?xml version="1.0" standalone="no"?>
<!DOCTYPE svg PUBLIC "-//W3C//DTD SVG 20010904//EN"
 "http://www.w3.org/TR/2001/REC-SVG-20010904/DTD/svg10.dtd">
<svg version="1.0" xmlns="http://www.w3.org/2000/svg"
 width="300.000000pt" height="300.000000pt" viewBox="0 0 300.000000 300.000000"
 preserveAspectRatio="xMidYMid meet">
<metadata>
Created by potrace 1.11, written by Peter Selinger 2001-2013
</metadata>
<g transform="translate(0.000000,300.000000) scale(0.100000,-0.100000)"
fill="#000000" stroke="none">
<path d="M1434 2868 c-12 -5 -32 -28 -45 -50 -81 -135 -178 -282 -241 -366
-94 -126 -203 -264 -243 -308 -142 -155 -293 -365 -360 -499 -97 -197 -124
-318 -120 -550 1 -88 7 -182 14 -210 7 -27 14 -57 16 -65 2 -9 17 -52 35 -97
95 -249 310 -446 585 -538 144 -49 245 -63 430 -63 195 1 301 18 446 72 331
125 526 347 611 696 14 60 18 330 6 415 -33 226 -134 426 -339 674 -52 62
-129 157 -172 210 -42 53 -91 112 -107 132 -81 99 -227 306 -286 407 -37 62
-78 122 -92 133 -27 21 -101 25 -138 7z m657 -1644 c43 -22 61 -65 58 -142 -8
-236 -143 -419 -366 -493 -78 -26 -124 -21 -165 18 -55 53 -55 139 1 186 16
13 53 32 82 41 128 42 181 115 193 263 5 66 13 88 44 116 40 36 97 40 153 11z"/>
</g>
</svg>
